
<svg xmlns="http://www.w3.org/2000/svg" xml:space="preserve" x="0" y="0" style="enable-background:new 0 0 1615.9 528.5" version="1.1" viewBox="0 0 1615.9 528.5"><style>.st0{fill:#e8bf28}.st1{fill:#0e191c}@media (prefers-color-scheme:dark){.st1{fill:#fff}}</style><path d="M319.3 343.4c-11 6.4-23.8 10.1-37.5 10.1s-26.4-3.7-37.5-10.1l-87.6 151.7c37.6 21.8 80.4 33.4 125 33.4s87.4-11.6 125-33.4l-87.4-151.7zM406.8 61.9l-87.6 151.7c22.4 13 37.5 37.2 37.5 64.9h175c0-66.8-26-129.6-73.2-176.8-15.6-15.6-33-29-51.7-39.8z" class="st0"/><path d="M84.3 461c-5.4 0-10.9-1.4-16-4.3-15.3-8.8-20.5-28.4-11.7-43.7l229-397C294.5.7 314-4.5 329.3 4.3c15.3 8.8 20.6 28.4 11.7 43.7L112 445c-5.9 10.3-16.6 16-27.7 16zM32 295.5c-5.4 0-10.9-1.4-16-4.3-15.3-8.8-20.5-28.4-11.7-43.7l112-194c8.8-15.3 28.4-20.6 43.7-11.7 15.3 8.8 20.5 28.4 11.7 43.7l-112 194c-5.9 10.3-16.7 16-27.7 16z" class="st1"/><path d="M683.6 480.9V310.5h39.7l94 113.4h-18.7V310.5h47.2v170.4h-39.7l-94-113.4h18.7v113.4h-47.2zM958.4 484.3c-25.2 0-44.8-6.9-58.9-20.7-14.1-13.8-21.2-33.3-21.2-58.7v-94.4h48.2v93c0 14.6 2.9 25.1 8.6 31.4 5.8 6.3 13.7 9.5 23.7 9.5 10.1 0 17.9-3.2 23.6-9.5 5.7-6.3 8.5-16.8 8.5-31.4v-93h47.5v94.4c0 25.3-7.1 44.9-21.2 58.7-14 13.8-33.6 20.7-58.8 20.7zM1071.1 480.9V310.5h47.7v170.4h-47.7zm43.1-37.8-2.7-54 73.3-78.6h53.1l-73 79.1-26.8 28-23.9 25.5zm71.3 37.8-55.5-70.3 31.4-33.6 80.1 103.9h-56zM1301.9 443.6h89.1v37.2h-136.8V310.5h133.6v37.2h-85.9v95.9zm-3.4-67.2h79.1v36h-79.1v-36zM1417.7 480.9V310.5h39.7l70.6 115.9h-20.9l68.6-115.9h39.7l.5 170.4h-44.3l-.5-103h7.5l-51.4 86.2h-21.4l-52.8-86.2h9.2v103h-44.5zM847.8 64.5l-34.3 170.1h-48.2l34.5-170.1h48zM765.8 64.5l-34.3 170.1h-48.2l34.5-170.1h48z" class="st0"/><path d="M912.4 234.4V102.2H874l8-38.2h130.7v38.2h-52.1v132.2h-48.2zM1114.2 237.8c-13.6 0-26.2-2.2-37.7-6.6-11.5-4.4-21.5-10.6-30.1-18.6-8.5-8-15.1-17.4-19.8-28.1-4.7-10.7-7.1-22.5-7.1-35.3 0-12.8 2.4-24.6 7.1-35.3 4.7-10.7 11.3-20.1 19.8-28.1s18.5-14.2 30.1-18.6c11.5-4.4 24.1-6.6 37.7-6.6 13.8 0 26.4 2.2 37.8 6.6 11.4 4.4 21.4 10.6 29.8 18.6 8.4 8 15 17.4 19.8 28.1 4.8 10.7 7.2 22.5 7.2 35.3 0 12.8-2.4 24.6-7.2 35.4-4.8 10.8-11.4 20.2-19.8 28.1-8.4 8-18.4 14.1-29.8 18.5-11.4 4.4-24 6.6-37.8 6.6zm0-40c6.5 0 12.5-1.1 18.1-3.4 5.6-2.3 10.5-5.6 14.6-9.9 4.1-4.3 7.4-9.5 9.7-15.5 2.3-6 3.5-12.7 3.5-20 0-7.5-1.2-14.2-3.5-20.1-2.4-5.9-5.6-11-9.7-15.3-4.1-4.3-9-7.6-14.6-9.9-5.6-2.3-11.6-3.4-18.1-3.4-6.5 0-12.5 1.1-18.1 3.4-5.6 2.3-10.5 5.6-14.6 9.9-4.1 4.3-7.4 9.4-9.7 15.3-2.4 5.9-3.5 12.6-3.5 20.1 0 7.3 1.2 14 3.5 20 2.4 6 5.6 11.2 9.7 15.5 4.1 4.3 9 7.6 14.6 9.9 5.6 2.3 11.6 3.4 18.1 3.4zM1234.2 234.4V64h80.6c18.8 0 35.4 3.5 49.7 10.5 14.3 7 25.4 16.8 33.5 29.5 8 12.7 12 27.7 12 45.3 0 17.4-4 32.4-12 45.2-8 12.7-19.2 22.6-33.5 29.6s-30.8 10.5-49.7 10.5h-80.6zm48.2-38.5h30.4c9.7 0 18.2-1.8 25.4-5.5 7.2-3.7 12.9-9 16.9-16.1 4.1-7.1 6.1-15.5 6.1-25.2 0-9.9-2-18.3-6.1-25.3s-9.7-12.3-16.9-15.9c-7.2-3.7-15.7-5.5-25.4-5.5h-30.4v93.5zM1521.2 237.8c-13.6 0-26.2-2.2-37.7-6.6-11.5-4.4-21.5-10.6-30.1-18.6-8.5-8-15.1-17.4-19.8-28.1-4.7-10.7-7.1-22.5-7.1-35.3 0-12.8 2.4-24.6 7.1-35.3 4.7-10.7 11.3-20.1 19.8-28.1s18.5-14.2 30.1-18.6c11.5-4.4 24.1-6.6 37.7-6.6 13.8 0 26.4 2.2 37.8 6.6 11.4 4.4 21.4 10.6 29.8 18.6 8.4 8 15 17.4 19.8 28.1 4.8 10.7 7.2 22.5 7.2 35.3 0 12.8-2.4 24.6-7.2 35.4-4.8 10.8-11.4 20.2-19.8 28.1-8.4 8-18.4 14.1-29.8 18.5-11.4 4.4-24 6.6-37.8 6.6zm0-40c6.5 0 12.5-1.1 18.1-3.4 5.6-2.3 10.5-5.6 14.6-9.9 4.1-4.3 7.4-9.5 9.7-15.5 2.3-6 3.5-12.7 3.5-20 0-7.5-1.2-14.2-3.5-20.1-2.4-5.9-5.6-11-9.7-15.3-4.1-4.3-9-7.6-14.6-9.9-5.6-2.3-11.6-3.4-18.1-3.4-6.5 0-12.5 1.1-18.1 3.4-5.6 2.3-10.5 5.6-14.6 9.9-4.1 4.3-7.4 9.4-9.7 15.3-2.4 5.9-3.5 12.6-3.5 20.1 0 7.3 1.2 14 3.5 20 2.4 6 5.6 11.2 9.7 15.5 4.1 4.3 9 7.6 14.6 9.9 5.6 2.3 11.6 3.4 18.1 3.4z" class="st1"/></svg>
